<?xml version="1.0" encoding="UTF-8"?>
<svg xmlns="http://www.w3.org/2000/svg" xmlns:xlink="http://www.w3.org/1999/xlink" width="128px" height="128px" viewBox="0 0 128 128" version="1.1">
<g id="surface1">
<path style=" stroke:none;fill-rule:nonzero;fill:rgb(32.54902%,61.960784%,26.27451%);fill-opacity:1;" d="M 64 127.761719 C 62.011719 127.761719 60.15625 127.292969 58.433594 126.472656 L 40.8125 117.199219 C 38.160156 115.90625 39.488281 115.4375 40.28125 115.203125 C 43.859375 114.148438 44.523438 113.914062 48.230469 112.035156 C 48.628906 111.800781 49.160156 111.917969 49.558594 112.152344 L 63.074219 119.3125 C 63.601562 119.546875 64.265625 119.546875 64.664062 119.3125 L 117.53125 92.199219 C 118.0625 91.964844 118.328125 91.492188 118.328125 90.90625 L 118.328125 36.796875 C 118.328125 36.210938 118.0625 35.742188 117.53125 35.507812 L 64.664062 8.507812 C 64.132812 8.273438 63.46875 8.273438 63.074219 8.507812 L 10.203125 35.507812 C 9.671875 35.742188 9.40625 36.328125 9.40625 36.796875 L 9.40625 90.90625 C 9.40625 91.375 9.671875 91.964844 10.203125 92.199219 L 24.644531 99.59375 C 32.464844 103.113281 37.367188 99.003906 37.367188 94.898438 L 37.367188 41.492188 C 37.367188 40.789062 38.027344 40.082031 38.957031 40.082031 L 45.714844 40.082031 C 46.507812 40.082031 47.304688 40.671875 47.304688 41.492188 L 47.304688 94.898438 C 47.304688 104.171875 41.605469 109.570312 31.667969 109.570312 C 28.621094 109.570312 26.234375 109.570312 19.476562 106.636719 L 5.566406 99.59375 C 2.121094 97.832031 0 94.546875 0 91.023438 L 0 36.914062 C 0 33.394531 2.121094 30.105469 5.566406 28.347656 L 58.433594 1.234375 C 61.746094 -0.410156 66.253906 -0.410156 69.566406 1.234375 L 122.433594 28.347656 C 125.878906 30.105469 128 33.394531 128 36.914062 L 128 91.023438 C 128 94.546875 125.878906 97.832031 122.433594 99.59375 L 69.566406 126.707031 C 67.84375 127.410156 65.855469 127.761719 64 127.761719 Z M 80.296875 90.554688 C 57.109375 90.554688 52.339844 81.164062 52.339844 73.183594 C 52.339844 72.480469 53.003906 71.773438 53.929688 71.773438 L 60.820312 71.773438 C 61.613281 71.773438 62.277344 72.246094 62.277344 72.949219 C 63.335938 79.167969 66.386719 82.222656 80.429688 82.222656 C 91.5625 82.222656 96.332031 79.992188 96.332031 74.710938 C 96.332031 71.65625 95.007812 69.425781 77.648438 67.902344 C 63.203125 66.609375 54.195312 63.792969 54.195312 53.582031 C 54.195312 44.074219 63.203125 38.441406 78.3125 38.441406 C 95.269531 38.441406 103.617188 43.605469 104.679688 54.871094 C 104.679688 55.226562 104.546875 55.578125 104.28125 55.929688 C 104.015625 56.164062 103.617188 56.398438 103.222656 56.398438 L 96.332031 56.398438 C 95.667969 56.398438 95.007812 55.929688 94.875 55.34375 C 93.285156 48.886719 89.175781 46.773438 78.3125 46.773438 C 66.121094 46.773438 64.664062 50.53125 64.664062 53.347656 C 64.664062 56.75 66.386719 57.808594 82.816406 59.683594 C 99.113281 61.5625 106.800781 64.261719 106.800781 74.355469 C 106.667969 84.6875 97.125 90.554688 80.296875 90.554688 Z M 80.296875 90.554688 "/>
</g>
</svg>
