<?xml version="1.0" encoding="UTF-8"?>
<svg xmlns="http://www.w3.org/2000/svg" xmlns:xlink="http://www.w3.org/1999/xlink" width="128px" height="128px" viewBox="0 0 128 128" version="1.1">
<defs>
<linearGradient id="linear0" gradientUnits="userSpaceOnUse" x1="0.129594" y1="0.120394" x2="0.796388" y2="0.782009" gradientTransform="matrix(94.644531,0,0,95.269531,0.0742188,0.0351562)">
<stop offset="0" style="stop-color:rgb(21.960784%,49.411765%,72.156863%);stop-opacity:1;"/>
<stop offset="1" style="stop-color:rgb(21.176471%,41.176471%,58.039216%);stop-opacity:1;"/>
</linearGradient>
<linearGradient id="linear1" gradientUnits="userSpaceOnUse" x1="0.191275" y1="0.205792" x2="0.907415" y2="0.88429" gradientTransform="matrix(94.644531,0,0,95.269531,33.121094,32.292969)">
<stop offset="0" style="stop-color:rgb(100%,87.843137%,32.156863%);stop-opacity:1;"/>
<stop offset="1" style="stop-color:rgb(100%,76.470588%,19.215686%);stop-opacity:1;"/>
</linearGradient>
</defs>
<g id="surface1">
<path style=" stroke:none;fill-rule:nonzero;fill:url(#linear0);" d="M 63.457031 0.0351562 C 31.042969 0.0351562 33.066406 14.148438 33.066406 14.148438 L 33.101562 28.769531 L 64.035156 28.769531 L 64.035156 33.160156 L 20.816406 33.160156 C 20.816406 33.160156 0.0742188 30.796875 0.0742188 63.632812 C 0.0742188 96.46875 18.175781 95.304688 18.175781 95.304688 L 28.984375 95.304688 L 28.984375 80.070312 C 28.984375 80.070312 28.398438 61.894531 46.796875 61.894531 L 77.480469 61.894531 C 77.480469 61.894531 94.71875 62.171875 94.71875 45.167969 L 94.71875 17.050781 C 94.71875 17.050781 97.335938 0.0351562 63.457031 0.0351562 Z M 46.402344 9.867188 C 49.480469 9.867188 51.964844 12.367188 51.964844 15.453125 C 51.964844 18.542969 49.480469 21.042969 46.402344 21.042969 C 43.324219 21.042969 40.835938 18.542969 40.835938 15.453125 C 40.835938 12.367188 43.324219 9.867188 46.402344 9.867188 Z M 46.402344 9.867188 "/>
<path style=" stroke:none;fill-rule:nonzero;fill:url(#linear1);" d="M 64.378906 127.5625 C 96.792969 127.5625 94.769531 113.449219 94.769531 113.449219 L 94.734375 98.828125 L 63.800781 98.828125 L 63.800781 94.4375 L 107.019531 94.4375 C 107.019531 94.4375 127.765625 96.800781 127.765625 63.964844 C 127.765625 31.128906 109.660156 32.292969 109.660156 32.292969 L 98.855469 32.292969 L 98.855469 47.527344 C 98.855469 47.527344 99.4375 65.703125 81.039062 65.703125 L 50.355469 65.703125 C 50.355469 65.703125 33.121094 65.425781 33.121094 82.429688 L 33.121094 110.546875 C 33.121094 110.546875 30.503906 127.5625 64.378906 127.5625 Z M 81.4375 117.730469 C 78.359375 117.730469 75.871094 115.230469 75.871094 112.144531 C 75.871094 109.054688 78.359375 106.554688 81.4375 106.554688 C 84.511719 106.554688 87 109.054688 87 112.144531 C 87 115.230469 84.511719 117.730469 81.4375 117.730469 Z M 81.4375 117.730469 "/>
</g>
</svg>
