<?xml version="1.0" encoding="UTF-8"?>
<svg xmlns="http://www.w3.org/2000/svg" xmlns:xlink="http://www.w3.org/1999/xlink" width="128px" height="128px" viewBox="0 0 128 128" version="1.1">
<g id="surface1">
<path style=" stroke:none;fill-rule:nonzero;fill:rgb(39.607843%,60.392157%,82.745098%);fill-opacity:1;" d="M 115.398438 30.699219 L 67.101562 2.898438 C 66.300781 2.398438 65.199219 2.199219 64 2.199219 C 62.800781 2.199219 61.699219 2.5 60.898438 2.898438 L 12.898438 30.800781 C 11.199219 31.800781 10 34.300781 10 36.199219 L 10 91.898438 C 10 93 10.199219 94.300781 11 95.398438 L 117.800781 33.398438 C 117.199219 32.199219 116.300781 31.300781 115.398438 30.699219 Z M 115.398438 30.699219 "/>
<path style=" stroke:none;fill-rule:nonzero;fill:rgb(1.176471%,34.901961%,61.176471%);fill-opacity:1;" d="M 10.699219 95.300781 C 11.199219 96.101562 11.898438 96.800781 12.601562 97.199219 L 60.800781 125.101562 C 61.601562 125.601562 62.699219 125.800781 63.898438 125.800781 C 65.101562 125.800781 66.199219 125.5 67 125.101562 L 115 97.199219 C 116.699219 96.199219 117.898438 93.699219 117.898438 91.800781 L 117.898438 36.101562 C 117.898438 35.199219 117.800781 34.199219 117.300781 33.300781 Z M 10.699219 95.300781 "/>
<path style=" stroke:none;fill-rule:nonzero;fill:rgb(100%,100%,100%);fill-opacity:1;" d="M 85.300781 76.101562 C 81.101562 83.5 73.101562 88.5 64 88.5 C 50.5 88.5 39.5 77.5 39.5 64 C 39.5 50.5 50.5 39.5 64 39.5 C 73.101562 39.5 81.101562 44.5 85.300781 52 L 98.300781 44.5 C 91.5 32.601562 78.699219 24.5 64 24.5 C 42.199219 24.5 24.5 42.199219 24.5 64 C 24.5 85.800781 42.199219 103.5 64 103.5 C 78.601562 103.5 91.398438 95.5 98.199219 83.699219 Z M 85.300781 76.101562 "/>
</g>
</svg>
