<?xml version="1.0" encoding="UTF-8"?>
<svg xmlns="http://www.w3.org/2000/svg" xmlns:xlink="http://www.w3.org/1999/xlink" width="128px" height="128px" viewBox="0 0 128 128" version="1.1">
<g id="surface1">
<path style=" stroke:none;fill-rule:evenodd;fill:rgb(26.27451%,60%,20.392157%);fill-opacity:1;" d="M 88.039062 42.8125 C 89.644531 47.453125 90.800781 52.195312 91.179688 57.109375 C 91.652344 63.203125 91.433594 69.253906 90.148438 75.25 C 90.113281 75.414062 90.039062 75.570312 89.984375 75.730469 C 89.582031 75.730469 89.171875 75.679688 88.777344 75.742188 C 85.449219 76.265625 82.121094 76.808594 78.796875 77.347656 C 75.359375 77.902344 71.914062 78.4375 68.484375 79.03125 C 67.269531 79.242188 65.761719 78.992188 65.273438 80.675781 C 65.257812 80.71875 65.117188 80.726562 65.035156 80.753906 L 65.203125 70.703125 C 65.144531 62.617188 65.089844 54.535156 65.035156 46.449219 L 66.636719 46.175781 C 69.257812 45.746094 71.875 45.3125 74.496094 44.894531 C 77.628906 44.398438 80.757812 43.914062 83.890625 43.429688 C 85.269531 43.214844 86.652344 43.019531 88.039062 42.8125 Z M 88.039062 42.8125 "/>
<path style=" stroke:none;fill-rule:evenodd;fill:rgb(27.058824%,64.705882%,21.960784%);fill-opacity:1;" d="M 61.730469 110.054688 C 60.039062 108.601562 58.289062 107.210938 56.671875 105.683594 C 47.953125 97.460938 41.578125 87.785156 38.4375 76.117188 C 37.570312 72.90625 36.996094 69.644531 36.808594 66.324219 C 36.679688 64.003906 36.492188 61.660156 36.65625 59.351562 C 37.09375 53.207031 37.980469 47.121094 39.78125 41.203125 L 39.882812 41.066406 C 40.058594 41.300781 40.308594 41.503906 40.398438 41.769531 C 42.15625 46.949219 43.902344 52.132812 45.640625 57.320312 C 51.097656 73.617188 56.550781 89.921875 62.015625 106.21875 C 62.121094 106.535156 62.398438 106.796875 62.597656 107.085938 Z M 61.730469 110.054688 "/>
<path style=" stroke:none;fill-rule:evenodd;fill:rgb(27.45098%,62.745098%,21.568627%);fill-opacity:1;" d="M 88.039062 42.8125 C 86.652344 43.019531 85.269531 43.214844 83.890625 43.429688 C 80.757812 43.914062 77.625 44.394531 74.496094 44.894531 C 71.875 45.308594 69.253906 45.746094 66.636719 46.175781 L 65.03125 46.449219 L 65.019531 45.402344 C 64.96875 44.546875 64.878906 43.6875 64.867188 42.828125 C 64.796875 37.351562 64.753906 31.871094 64.6875 26.394531 C 64.644531 22.964844 64.582031 19.535156 64.511719 16.109375 C 64.46875 13.980469 64.421875 11.847656 64.328125 9.722656 C 64.273438 8.578125 64.089844 7.441406 64.015625 6.296875 C 63.972656 5.640625 64.03125 4.980469 64.046875 4.320312 C 64.863281 5.902344 65.660156 7.496094 66.5 9.066406 C 67.828125 11.550781 69.941406 13.382812 71.84375 15.378906 C 79.367188 23.269531 84.710938 32.445312 88.039062 42.8125 Z M 88.039062 42.8125 "/>
<path style=" stroke:none;fill-rule:evenodd;fill:rgb(25.098039%,58.039216%,20%);fill-opacity:1;" d="M 65.035156 80.753906 C 65.117188 80.726562 65.257812 80.71875 65.269531 80.671875 C 65.761719 78.992188 67.265625 79.242188 68.484375 79.03125 C 71.914062 78.4375 75.359375 77.902344 78.796875 77.34375 C 82.121094 76.804688 85.449219 76.265625 88.777344 75.742188 C 89.171875 75.679688 89.582031 75.730469 89.984375 75.730469 C 89.363281 77.949219 88.871094 80.21875 88.085938 82.375 C 87.1875 84.824219 86.105469 87.214844 84.953125 89.558594 C 83.234375 93.0625 81.089844 96.328125 78.601562 99.320312 C 76.679688 101.628906 74.542969 103.761719 72.398438 105.867188 C 71.214844 107.035156 69.816406 107.984375 68.515625 109.03125 L 68.179688 108.800781 L 66.964844 107.761719 L 65.710938 105.007812 C 64.84375 101.785156 64.390625 98.503906 64.316406 95.171875 L 64.339844 94.609375 L 64.507812 92.183594 C 64.566406 91.355469 64.640625 90.527344 64.675781 89.699219 C 64.804688 86.71875 64.917969 83.734375 65.035156 80.753906 Z M 65.035156 80.753906 "/>
<path style=" stroke:none;fill-rule:evenodd;fill:rgb(30.980392%,66.666667%,25.490196%);fill-opacity:1;" d="M 65.035156 80.753906 C 64.917969 83.734375 64.804688 86.71875 64.679688 89.699219 C 64.644531 90.53125 64.566406 91.355469 64.511719 92.183594 L 63.746094 92.472656 C 62.046875 87.472656 60.347656 82.523438 58.683594 77.5625 C 55.933594 69.351562 53.21875 61.128906 50.472656 52.917969 C 48.253906 46.289062 46.019531 39.671875 43.769531 33.050781 C 43.664062 32.742188 43.363281 32.5 43.152344 32.226562 L 48.050781 23.222656 C 48.21875 23.515625 48.441406 23.789062 48.546875 24.101562 C 50.8125 30.804688 53.070312 37.511719 55.3125 44.222656 C 58.230469 52.949219 61.128906 61.6875 64.042969 70.417969 C 64.15625 70.769531 64.351562 71.089844 64.53125 71.480469 L 65.203125 70.699219 C 65.148438 74.050781 65.089844 77.402344 65.035156 80.753906 Z M 65.035156 80.753906 "/>
<path style=" stroke:none;fill-rule:evenodd;fill:rgb(29.019608%,65.490196%,23.529412%);fill-opacity:1;" d="M 43.15625 32.226562 C 43.363281 32.5 43.664062 32.742188 43.773438 33.054688 C 46.019531 39.671875 48.253906 46.292969 50.472656 52.921875 C 53.21875 61.132812 55.933594 69.351562 58.683594 77.5625 C 60.347656 82.523438 62.046875 87.472656 63.746094 92.476562 L 64.511719 92.1875 L 64.339844 94.613281 L 64.1875 95.171875 C 63.921875 97.828125 63.695312 100.488281 63.371094 103.140625 C 63.210938 104.46875 62.863281 105.769531 62.601562 107.085938 C 62.402344 106.800781 62.125 106.539062 62.015625 106.21875 C 56.550781 89.921875 51.097656 73.621094 45.640625 57.320312 C 43.902344 52.132812 42.15625 46.949219 40.398438 41.769531 C 40.308594 41.507812 40.058594 41.300781 39.882812 41.066406 C 40.972656 38.121094 42.0625 35.171875 43.15625 32.226562 Z M 43.15625 32.226562 "/>
<path style=" stroke:none;fill-rule:evenodd;fill:rgb(34.117647%,68.235294%,27.843137%);fill-opacity:1;" d="M 65.203125 70.703125 L 64.53125 71.480469 C 64.347656 71.089844 64.15625 70.769531 64.039062 70.421875 C 61.128906 61.6875 58.230469 52.953125 55.3125 44.222656 C 53.070312 37.511719 50.808594 30.808594 48.546875 24.105469 C 48.441406 23.789062 48.21875 23.515625 48.050781 23.226562 L 54.105469 15.261719 C 54.296875 15.515625 54.566406 15.742188 54.664062 16.027344 C 56.347656 20.949219 58.011719 25.878906 59.667969 30.808594 C 61.214844 35.410156 62.738281 40.023438 64.304688 44.621094 C 64.410156 44.929688 64.773438 45.144531 65.019531 45.40625 L 65.03125 46.449219 C 65.089844 54.53125 65.144531 62.617188 65.203125 70.703125 Z M 65.203125 70.703125 "/>
<path style=" stroke:none;fill-rule:evenodd;fill:rgb(37.647059%,69.803922%,30.980392%);fill-opacity:1;" d="M 65.019531 45.402344 C 64.777344 45.144531 64.410156 44.925781 64.308594 44.617188 C 62.742188 40.019531 61.21875 35.410156 59.671875 30.804688 C 58.015625 25.875 56.347656 20.949219 54.667969 16.027344 C 54.570312 15.738281 54.296875 15.511719 54.105469 15.257812 C 56.074219 13.328125 57.984375 11.332031 60.03125 9.492188 C 61.851562 7.859375 63.316406 6.109375 63.382812 3.527344 C 63.386719 3.417969 63.441406 3.3125 63.527344 3.011719 L 64.046875 4.316406 C 64.035156 4.980469 63.976562 5.640625 64.019531 6.296875 C 64.09375 7.441406 64.277344 8.578125 64.328125 9.71875 C 64.425781 11.847656 64.472656 13.976562 64.515625 16.109375 C 64.582031 19.535156 64.644531 22.964844 64.6875 26.394531 C 64.757812 31.871094 64.800781 37.347656 64.867188 42.828125 C 64.878906 43.6875 64.96875 44.546875 65.019531 45.402344 Z M 65.019531 45.402344 "/>
<path style=" stroke:none;fill-rule:evenodd;fill:rgb(66.27451%,66.666667%,53.333333%);fill-opacity:1;" d="M 62.597656 107.085938 C 62.859375 105.769531 63.207031 104.464844 63.371094 103.136719 C 63.695312 100.488281 63.917969 97.824219 64.183594 95.171875 L 64.25 95.160156 L 64.316406 95.171875 C 64.390625 98.503906 64.84375 101.785156 65.710938 105.007812 C 65.535156 105.242188 65.285156 105.449219 65.191406 105.710938 C 64.464844 107.761719 63.78125 109.824219 63.050781 111.875 C 62.949219 112.15625 62.671875 112.375 62.476562 112.621094 L 61.726562 110.054688 Z M 62.597656 107.085938 "/>
<path style=" stroke:none;fill-rule:evenodd;fill:rgb(71.372549%,70.980392%,59.607843%);fill-opacity:1;" d="M 62.476562 112.621094 C 62.671875 112.375 62.949219 112.15625 63.050781 111.878906 C 63.78125 109.828125 64.46875 107.761719 65.191406 105.710938 C 65.285156 105.449219 65.535156 105.242188 65.710938 105.011719 L 66.964844 107.765625 C 66.71875 108.117188 66.375 108.433594 66.238281 108.824219 L 63.835938 115.882812 C 63.734375 116.167969 63.398438 116.367188 63.171875 116.605469 Z M 62.476562 112.621094 "/>
<path style=" stroke:none;fill-rule:evenodd;fill:rgb(76.078431%,75.686275%,65.490196%);fill-opacity:1;" d="M 63.171875 116.605469 C 63.398438 116.367188 63.734375 116.164062 63.835938 115.882812 L 66.238281 108.824219 C 66.375 108.433594 66.71875 108.113281 66.964844 107.761719 L 68.179688 108.800781 C 67.59375 109.378906 67.269531 110.050781 67.464844 110.898438 L 67.09375 112.105469 C 66.925781 112.3125 66.683594 112.492188 66.601562 112.730469 C 65.761719 115.132812 64.960938 117.546875 64.117188 119.949219 C 64.007812 120.257812 63.710938 120.496094 63.503906 120.761719 C 63.394531 119.375 63.28125 117.992188 63.171875 116.605469 Z M 63.171875 116.605469 "/>
<path style=" stroke:none;fill-rule:evenodd;fill:rgb(80.784314%,80.392157%,71.764706%);fill-opacity:1;" d="M 63.503906 120.761719 C 63.710938 120.492188 64.007812 120.253906 64.117188 119.949219 C 64.960938 117.550781 65.761719 115.132812 66.601562 112.730469 C 66.683594 112.492188 66.925781 112.3125 67.097656 112.105469 L 66.585938 117.648438 C 66.449219 117.808594 66.253906 117.945312 66.1875 118.128906 C 65.613281 119.742188 65.070312 121.367188 64.496094 122.980469 C 64.375 123.3125 64.148438 123.609375 63.96875 123.917969 C 63.8125 123.710938 63.527344 123.511719 63.515625 123.296875 C 63.464844 122.453125 63.5 121.609375 63.503906 120.761719 Z M 63.503906 120.761719 "/>
<path style=" stroke:none;fill-rule:evenodd;fill:rgb(85.882353%,85.490196%,78.039216%);fill-opacity:1;" d="M 63.96875 123.917969 C 64.148438 123.605469 64.375 123.3125 64.492188 122.980469 C 65.070312 121.367188 65.613281 119.742188 66.1875 118.128906 C 66.253906 117.945312 66.449219 117.808594 66.585938 117.648438 L 66.597656 121.289062 L 65.378906 124.414062 Z M 63.96875 123.917969 "/>
<path style=" stroke:none;fill-rule:evenodd;fill:rgb(92.156863%,91.372549%,86.27451%);fill-opacity:1;" d="M 65.378906 124.414062 L 66.597656 121.289062 L 66.847656 124.988281 Z M 65.378906 124.414062 "/>
<path style=" stroke:none;fill-rule:evenodd;fill:rgb(80.784314%,80.392157%,71.764706%);fill-opacity:1;" d="M 67.464844 110.898438 C 67.269531 110.050781 67.59375 109.378906 68.179688 108.800781 L 68.519531 109.03125 Z M 67.464844 110.898438 "/>
<path style=" stroke:none;fill-rule:evenodd;fill:rgb(30.980392%,66.666667%,25.490196%);fill-opacity:1;" d="M 64.316406 95.171875 L 64.25 95.160156 L 64.183594 95.171875 L 64.339844 94.613281 Z M 64.316406 95.171875 "/>
</g>
</svg>
