<?xml version="1.0" encoding="UTF-8" standalone="no"?>
<!-- Uploaded to: SVG Repo, www.svgrepo.com, Generator: SVG Repo Mixer Tools -->

<svg
   width="128"
   height="128"
   viewBox="0 0 5.12 5.1200001"
   version="1.1"
   id="svg1"
   sodipodi:docname="sass.svg"
   inkscape:version="1.3.2 (091e20ef0f, 2023-11-25)"
   xmlns:inkscape="http://www.inkscape.org/namespaces/inkscape"
   xmlns:sodipodi="http://sodipodi.sourceforge.net/DTD/sodipodi-0.dtd"
   xmlns="http://www.w3.org/2000/svg"
   xmlns:svg="http://www.w3.org/2000/svg"
   xmlns:rdf="http://www.w3.org/1999/02/22-rdf-syntax-ns#"
   xmlns:cc="http://creativecommons.org/ns#"
   xmlns:dc="http://purl.org/dc/elements/1.1/">
  <defs
     id="defs1" />
  <sodipodi:namedview
     id="namedview1"
     pagecolor="#505050"
     bordercolor="#eeeeee"
     borderopacity="1"
     inkscape:showpageshadow="0"
     inkscape:pageopacity="0"
     inkscape:pagecheckerboard="0"
     inkscape:deskcolor="#505050"
     inkscape:zoom="0.6175"
     inkscape:cx="93.117409"
     inkscape:cy="147.36842"
     inkscape:window-width="1366"
     inkscape:window-height="700"
     inkscape:window-x="0"
     inkscape:window-y="0"
     inkscape:window-maximized="1"
     inkscape:current-layer="svg1" />
  <title
     id="title1">file_type_sass</title>
  <path
     d="M 4.4082182,2.945789 A 1.0604631,1.4154441 0 0 0 3.9443572,3.0892856 0.97727159,1.304405 0 0 1 3.8405047,2.7686143 0.64541979,0.86146861 0 0 1 3.8311797,2.5001682 1.7938282,2.394297 0 0 1 3.8918822,2.2092698 c -9e-4,-0.012446 -0.011155,-0.07126 -0.114091,-0.073212 -0.102938,-0.00195 -0.1916145,0.026112 -0.2011225,0.062475 A 1.1282961,1.5059838 0 0 0 3.5337037,2.4020631 3.599358,4.8042126 0 0 1 3.2205018,3.2059382 0.58252334,0.77751812 0 0 1 3.1400528,2.7017468 1.7938282,2.394297 0 0 1 3.2007553,2.4108486 c -9e-4,-0.012445 -0.011155,-0.071261 -0.1140915,-0.073212 -0.102938,-0.00195 -0.1916145,0.02611 -0.201122,0.062474 -0.00951,0.036365 -0.021575,0.1220211 -0.042965,0.2035311 -0.02139,0.08151 -0.2711495,0.8263271 -0.336606,1.0183882 -0.033645,0.097616 -0.062714,0.1771746 -0.083191,0.2308636 v 0 a 0.04260136,0.05686181 0 0 1 -0.00365,0.010005 c -0.018285,0.046125 -0.027975,0.07126 -0.027975,0.07126 v 0.0012 c -0.01408,0.03368 -0.02907,0.064916 -0.036565,0.064916 a 0.31283661,0.41755602 0 0 1 0.00185,-0.2120726 c 0.036565,-0.2584406 0.1261585,-0.6601338 0.1252445,-0.6740443 0,-0.00757 0.01682,-0.077361 -0.057959,-0.1134795 a 0.09288194,0.12397338 0 0 0 -0.105681,0.024405 c -0.00658,0 -0.011155,0.02123 -0.011155,0.02123 0,0 0.081363,-0.4517224 -0.1552295,-0.4517224 a 0.70484229,0.94078225 0 0 0 -0.452529,0.4107454 c -0.063628,0.046125 -0.199111,0.1447165 -0.344102,0.2508751 -0.054852,0.041245 -0.112263,0.082486 -0.165469,0.1220211 -0.00365,-0.0049 -0.00749,-0.011225 -0.011155,-0.016105 C 0.89040629,2.9526221 0.36108889,2.6636763 0.38394369,2.1158018 0.39235429,1.9161753 0.44373189,1.3919729 1.4003428,0.75526706 2.1876453,0.23740976 2.8142328,0.38090653 2.9226558,0.69913738 3.0778858,1.1535438 2.5869643,1.9971973 1.7735163,2.1194624 A 0.61269169,0.81778504 0 0 1 1.2591913,1.9459485 c -0.042965,-0.062475 -0.04955,-0.066136 -0.065456,-0.053689 -0.026145,0.018791 -0.00933,0.074921 0,0.1073785 a 0.4801338,0.64085455 0 0 0 0.2936385,0.3082254 1.5632689,2.0865599 0 0 0 0.9538685,-0.12617 C 2.9349058,1.9271572 3.3188667,1.2194351 3.2062383,0.6266569 3.0930613,0.02509316 2.3450693,-0.17331309 1.6371188,0.16297692 A 3.56535,4.7588208 0 0 0 0.43129889,1.0861882 C 0.04130445,1.5730521 -0.02031215,1.9959771 0.00491955,2.1733957 0.0963388,2.8025363 0.74559819,3.2117952 1.0054118,3.5156273 c -0.013165,0.010005 -0.02523,0.01879 -0.03547,0.02611 -0.12999849,0.086147 -0.62549054,0.4319547 -0.74963783,0.7975294 -0.1402371,0.4148717 0.022489,0.7113827 0.12999814,0.7514057 a 0.79973544,1.0674401 0 0 0 0.86116919,-0.4656321 0.86391174,1.1530989 0 0 0 0.077341,-1.0623155 0.01956371,0.0261125 0 0 0 -0.00365,-0.00756 l 0.101841,-0.079802 c 0.06637,-0.052469 0.1318265,-0.1010335 0.187958,-0.1410561 a 1.2323312,1.6448437 0 0 0 -0.06637,0.4544062 0.71051029,0.94834755 0 0 0 0.1524875,0.6589139 0.16839422,0.22476277 0 0 0 0.123416,0.053689 c 0.109703,0 0.1599835,-0.1220211 0.215018,-0.2669821 0.067284,-0.1771746 0.127987,-0.3831462 0.127987,-0.3831462 0,0 -0.075696,0.5566602 0.129998,0.5566602 0.074781,0 0.150476,-0.1298305 0.184301,-0.1952336 v 0.0012 c 0,0 0.00185,-0.00365 0.00567,-0.012445 l 0.01207,-0.02611 v -0.00245 C 2.4895238,4.1030366 2.5568068,3.9444095 2.6568198,3.6810879 2.7859038,3.3416252 2.9102338,2.917236 2.9102338,2.917236 a 1.6250683,2.1690461 0 0 0 0.04955,0.2757677 1.9459498,2.59734 0 0 0 0.106595,0.3194511 c -0.029985,0.056129 -0.048635,0.087367 -0.048635,0.087367 l 9e-4,0.0012 c -0.02432,0.042465 -0.050463,0.088588 -0.079535,0.133491 A 2.980267,3.9778861 0 0 0 2.6988593,4.1364506 0.08172879,0.10908682 0 0 0 2.7213493,4.2828757 0.20404773,0.27235097 0 0 0 2.8465938,4.3104507 0.57539264,0.76800046 0 0 0 3.0345513,4.2531012 0.63079269,0.8419452 0 0 0 3.1963638,4.1396216 0.36202015,0.48320334 0 0 0 3.3515932,3.7140119 0.64377424,0.85927221 0 0 0 3.2927192,3.4131083 c 0.00933,-0.01757 0.018285,-0.0349 0.02706,-0.052469 a 4.2835395,5.7174182 0 0 0 0.2804735,-0.6464679 1.6250683,2.1690461 0 0 0 0.04955,0.2757678 1.3840872,1.8473986 0 0 0 0.091419,0.2745476 0.88877779,1.1862886 0 0 0 -0.273709,0.4690487 c -0.058874,0.2272031 -0.013165,0.3294567 0.073136,0.3531292 A 0.26054481,0.34775998 0 0 0 3.6772282,4.0493246 0.62165079,0.82974309 0 0 0 3.8501932,3.93072 0.38871457,0.5188335 0 0 0 4.0408937,3.5087713 0.59751609,0.79752958 0 0 0 3.9979287,3.2591162 0.97928279,1.3070895 0 0 1 4.4945182,3.1829752 c 0.4450285,0.069796 0.5329742,0.4404957 0.5161532,0.5966827 A 0.29583264,0.39486011 0 0 1 4.8695197,4.0466401 c -0.0309,0.02611 -0.04114,0.0349 -0.038395,0.053689 0.00365,0.027575 0.018285,0.02611 0.044795,0.02123 A 0.34739308,0.46367997 0 0 0 5.1194599,3.7091279 C 5.1335399,3.3430647 4.8717137,2.9416155 4.4087667,2.945276 Z M 0.97451178,4.4900873 C 0.82677849,4.7048444 0.62108519,4.7858664 0.53222569,4.7172904 0.43678404,4.6440779 0.47426589,4.3268232 0.65564164,4.0993761 A 2.3556908,3.1442383 0 0 1 1.0030348,3.7535684 c 0.021575,-0.01757 0.053389,-0.042465 0.091419,-0.073212 l 0.01024,-0.00757 v 0 l 0.02249,-0.01879 A 0.63865474,0.85243905 0 0 1 0.97451378,4.4900888 Z M 2.0497848,3.5139188 C 1.9984078,3.6810879 1.8908983,4.1093816 1.8254423,4.0854656 1.7693103,4.0654556 1.7340233,3.7408784 1.8142873,3.4202068 A 1.1323186,1.5113527 0 0 1 1.9890808,2.9921571 C 2.0695298,2.8723325 2.1583888,2.8323093 2.1797813,2.881118 A 1.6568822,2.2115094 0 0 1 2.0497828,3.5139188 Z m 0.8873155,0.5666658 c -0.021575,0.014885 -0.042055,0.024405 -0.051378,0.01757 -0.00658,-0.0049 0.00933,-0.024405 0.00933,-0.024405 0,0 0.111349,-0.1598476 0.15523,-0.2320841 0.02523,-0.042465 0.054852,-0.092248 0.087031,-0.1486216 v 0.016105 c 0,0.1908406 -0.1384085,0.3194512 -0.200025,0.3719202 z M 3.6216472,3.872173 C 3.6057422,3.857288 3.6084822,3.8072575 3.6618722,3.6513149 A 0.62311349,0.83169544 0 0 1 3.8143592,3.3892138 0.2647501,0.35337295 0 0 1 3.8293542,3.5041573 0.2828511,0.37753312 0 0 1 3.6218327,3.872417 Z"
     style="fill:#cd6799;stroke-width:0.211235"
     id="path1" />
  <metadata
     id="metadata1">
    <rdf:RDF>
      <cc:Work
         rdf:about="">
        <dc:title>file_type_sass</dc:title>
      </cc:Work>
    </rdf:RDF>
  </metadata>
</svg>
