<?xml version="1.0" encoding="UTF-8"?>
<svg xmlns="http://www.w3.org/2000/svg" xmlns:xlink="http://www.w3.org/1999/xlink" width="128px" height="128px" viewBox="0 0 128 128" version="1.1">
<g id="surface1">
<path style=" stroke:none;fill-rule:nonzero;fill:rgb(0%,84.705882%,100%);fill-opacity:1;" d="M 105.242188 41.445312 C 103.914062 40.933594 102.539062 40.445312 101.121094 39.988281 C 101.355469 38.917969 101.566406 37.867188 101.757812 36.832031 C 104.875 19.832031 102.835938 6.136719 95.875 1.628906 C 89.195312 -2.695312 78.277344 1.8125 67.246094 12.589844 C 66.1875 13.625 65.121094 14.722656 64.058594 15.871094 C 63.351562 15.113281 62.644531 14.375 61.9375 13.671875 C 50.378906 2.148438 38.792969 -2.707031 31.835938 1.816406 C 25.164062 6.152344 23.191406 19.027344 25.996094 35.136719 C 26.269531 36.691406 26.585938 38.28125 26.945312 39.898438 C 25.304688 40.421875 23.722656 40.976562 22.207031 41.570312 C 8.65625 46.875 0 55.191406 0 63.8125 C 0 72.71875 9.289062 81.652344 23.40625 87.070312 C 24.519531 87.5 25.675781 87.902344 26.867188 88.285156 C 26.480469 90.035156 26.144531 91.746094 25.863281 93.417969 C 23.183594 109.246094 25.273438 121.820312 31.929688 126.128906 C 38.800781 130.578125 50.335938 126.003906 61.566406 114.980469 C 62.453125 114.109375 63.34375 113.183594 64.234375 112.214844 C 65.394531 113.46875 66.546875 114.652344 67.695312 115.761719 C 78.574219 126.273438 89.320312 130.515625 95.964844 126.195312 C 102.832031 121.734375 105.0625 108.230469 102.167969 91.800781 C 101.945312 90.542969 101.6875 89.261719 101.398438 87.957031 C 102.207031 87.6875 103.003906 87.410156 103.777344 87.125 C 118.453125 81.664062 128 72.839844 128 63.8125 C 128 55.160156 119.066406 46.789062 105.242188 41.445312 Z M 102.058594 81.296875 C 101.359375 81.554688 100.640625 81.808594 99.910156 82.050781 C 98.289062 76.292969 96.101562 70.167969 93.425781 63.84375 C 95.980469 57.667969 98.082031 51.625 99.65625 45.902344 C 100.964844 46.328125 102.238281 46.777344 103.460938 47.25 C 115.308594 51.828125 122.53125 58.597656 122.53125 63.8125 C 122.53125 69.371094 114.730469 76.582031 102.058594 81.296875 Z M 96.800781 92.992188 C 98.082031 100.257812 98.265625 106.824219 97.417969 111.960938 C 96.65625 116.574219 95.121094 119.648438 93.226562 120.882812 C 89.191406 123.503906 80.566406 120.097656 71.261719 111.105469 C 70.195312 110.078125 69.121094 108.976562 68.042969 107.8125 C 71.652344 103.382812 75.253906 98.234375 78.773438 92.515625 C 84.960938 91.898438 90.808594 90.890625 96.109375 89.515625 C 96.371094 90.699219 96.601562 91.859375 96.800781 92.992188 Z M 43.636719 120.429688 C 39.695312 121.992188 36.558594 122.035156 34.660156 120.808594 C 30.625 118.195312 28.945312 108.101562 31.234375 94.5625 C 31.496094 93.011719 31.808594 91.417969 32.167969 89.789062 C 37.410156 91.09375 43.214844 92.027344 49.417969 92.59375 C 52.960938 98.1875 56.667969 103.332031 60.40625 107.835938 C 59.589844 108.722656 58.777344 109.5625 57.96875 110.359375 C 53 115.230469 48.023438 118.691406 43.636719 120.429688 Z M 25.175781 81.261719 C 18.933594 78.867188 13.777344 75.753906 10.246094 72.355469 C 7.070312 69.304688 5.46875 66.273438 5.46875 63.8125 C 5.46875 58.582031 12.417969 51.90625 24.007812 47.367188 C 25.414062 46.816406 26.882812 46.300781 28.414062 45.8125 C 30.015625 51.660156 32.113281 57.777344 34.652344 63.964844 C 32.082031 70.238281 29.949219 76.453125 28.332031 82.371094 C 27.246094 82.019531 26.191406 81.652344 25.175781 81.261719 Z M 31.363281 33.957031 C 28.957031 20.15625 30.554688 9.742188 34.574219 7.128906 C 38.859375 4.34375 48.328125 8.3125 58.308594 18.265625 C 58.945312 18.898438 59.585938 19.566406 60.226562 20.253906 C 56.507812 24.738281 52.835938 29.84375 49.324219 35.40625 C 43.304688 36.03125 37.542969 37.039062 32.242188 38.386719 C 31.910156 36.882812 31.617188 35.402344 31.363281 33.957031 Z M 86.578125 49.265625 C 85.308594 46.808594 84.011719 44.410156 82.683594 42.078125 C 86.769531 42.65625 90.679688 43.425781 94.355469 44.371094 C 93.253906 48.339844 91.878906 52.488281 90.257812 56.746094 C 89.097656 54.269531 87.871094 51.773438 86.578125 49.265625 Z M 64.0625 24.640625 C 66.582031 27.710938 69.109375 31.136719 71.59375 34.851562 C 69.089844 34.71875 66.554688 34.648438 64 34.648438 C 61.46875 34.648438 58.953125 34.71875 56.464844 34.847656 C 58.953125 31.167969 61.5 27.746094 64.0625 24.640625 Z M 41.402344 49.308594 C 40.136719 51.773438 38.929688 54.253906 37.789062 56.738281 C 36.195312 52.5 34.832031 48.332031 33.71875 44.304688 C 37.371094 43.386719 41.265625 42.636719 45.324219 42.066406 C 43.980469 44.421875 42.667969 46.839844 41.402344 49.308594 Z M 45.441406 85.996094 C 41.25 85.472656 37.296875 84.761719 33.644531 83.867188 C 34.777344 79.769531 36.167969 75.511719 37.792969 71.179688 C 38.941406 73.664062 40.148438 76.148438 41.421875 78.617188 C 42.71875 81.132812 44.0625 83.59375 45.441406 85.996094 Z M 64.210938 103.417969 C 61.621094 100.277344 59.035156 96.804688 56.511719 93.070312 C 58.960938 93.175781 61.460938 93.234375 64 93.234375 C 66.609375 93.234375 69.1875 93.167969 71.726562 93.039062 C 69.234375 96.84375 66.71875 100.320312 64.210938 103.417969 Z M 90.3125 70.960938 C 92.023438 75.335938 93.464844 79.574219 94.609375 83.601562 C 90.898438 84.554688 86.890625 85.320312 82.667969 85.886719 C 84 83.523438 85.308594 81.082031 86.597656 78.574219 C 87.902344 76.035156 89.140625 73.492188 90.3125 70.960938 Z M 81.863281 75.507812 C 79.863281 79.402344 77.808594 83.121094 75.722656 86.632812 C 71.921875 86.9375 68 87.09375 64 87.09375 C 60.015625 87.09375 56.140625 86.953125 52.410156 86.683594 C 50.242188 83.125 48.144531 79.398438 46.15625 75.539062 C 44.171875 71.695312 42.347656 67.816406 40.695312 63.960938 C 42.347656 60.097656 44.167969 56.214844 46.136719 52.375 C 48.113281 48.527344 50.195312 44.816406 52.34375 41.28125 C 56.152344 40.957031 60.054688 40.789062 64 40.789062 C 67.960938 40.789062 71.871094 40.960938 75.675781 41.285156 C 77.792969 44.792969 79.859375 48.492188 81.84375 52.34375 C 83.851562 56.234375 85.695312 60.089844 87.363281 63.875 C 85.699219 67.722656 83.859375 71.617188 81.863281 75.507812 Z M 93.140625 6.945312 C 97.429688 9.722656 99.09375 20.914062 96.402344 35.59375 C 96.230469 36.527344 96.039062 37.484375 95.828125 38.449219 C 90.515625 37.074219 84.75 36.050781 78.710938 35.414062 C 75.195312 29.789062 71.550781 24.679688 67.890625 20.25 C 68.875 19.1875 69.859375 18.175781 70.835938 17.21875 C 80.285156 7.988281 89.117188 4.339844 93.140625 6.945312 Z M 64 50.980469 C 70.3125 50.980469 75.429688 56.726562 75.429688 63.8125 C 75.429688 70.902344 70.3125 76.648438 64 76.648438 C 57.6875 76.648438 52.570312 70.902344 52.570312 63.8125 C 52.570312 56.726562 57.6875 50.980469 64 50.980469 Z M 64 50.980469 "/>
</g>
</svg>
