<?xml version="1.0" encoding="UTF-8"?>
<svg xmlns="http://www.w3.org/2000/svg" xmlns:xlink="http://www.w3.org/1999/xlink" width="128px" height="128px" viewBox="0 0 128 128" version="1.1">
<g id="surface1">
<path style=" stroke:none;fill-rule:nonzero;fill:rgb(36.078431%,55.294118%,73.72549%);fill-opacity:1;" d="M 127.785156 37.652344 C 127.785156 35.507812 127.265625 33.609375 126.222656 31.980469 C 125.195312 30.382812 123.660156 29.039062 121.597656 27.976562 C 104.585938 19.257812 87.558594 10.566406 70.550781 1.835938 C 65.964844 -0.515625 61.519531 -0.429688 56.96875 1.957031 C 50.199219 5.507812 16.296875 22.773438 6.191406 27.972656 C 2.03125 30.113281 0.0078125 33.390625 0.0078125 37.648438 C 0 55.183594 0.0078125 72.71875 0 90.257812 C 0 92.355469 0.496094 94.214844 1.492188 95.820312 C 2.519531 97.46875 4.078125 98.847656 6.1875 99.933594 C 16.289062 105.132812 50.195312 122.398438 56.96875 125.949219 C 61.519531 128.335938 65.964844 128.421875 70.550781 126.066406 C 87.558594 117.339844 104.589844 108.644531 121.605469 99.925781 C 123.714844 98.84375 125.269531 97.460938 126.296875 95.816406 C 127.292969 94.210938 127.789062 92.351562 127.789062 90.25 C 127.789062 90.25 127.789062 55.1875 127.785156 37.652344 "/>
<path style=" stroke:none;fill-rule:nonzero;fill:rgb(10.196078%,27.45098%,45.490196%);fill-opacity:1;" d="M 64.089844 63.78125 L 1.492188 95.820312 C 2.519531 97.46875 4.078125 98.847656 6.1875 99.933594 C 16.289062 105.132812 50.195312 122.398438 56.96875 125.949219 C 61.519531 128.335938 65.964844 128.421875 70.550781 126.066406 C 87.558594 117.339844 104.589844 108.644531 121.605469 99.925781 C 123.714844 98.84375 125.269531 97.460938 126.296875 95.816406 Z M 64.089844 63.78125 "/>
<path style=" stroke:none;fill-rule:nonzero;fill:rgb(10.196078%,27.45098%,45.490196%);fill-opacity:1;" d="M 45.550781 73.273438 C 49.191406 78.925781 56.039062 82.738281 63.894531 82.738281 C 71.800781 82.738281 78.683594 78.875 82.308594 73.164062 L 64.089844 63.78125 Z M 45.550781 73.273438 "/>
<path style=" stroke:none;fill-rule:nonzero;fill:rgb(10.588235%,34.901961%,55.686275%);fill-opacity:1;" d="M 127.785156 37.652344 C 127.785156 35.507812 127.265625 33.609375 126.222656 31.980469 L 64.089844 63.78125 L 126.296875 95.816406 C 127.292969 94.210938 127.789062 92.351562 127.789062 90.25 C 127.789062 90.25 127.789062 55.1875 127.785156 37.652344 "/>
<path style=" stroke:none;fill-rule:nonzero;fill:rgb(100%,100%,100%);fill-opacity:1;" d="M 124.363281 66.070312 L 119.503906 66.070312 L 119.503906 70.394531 L 114.640625 70.394531 L 114.640625 66.070312 L 109.78125 66.070312 L 109.78125 61.75 L 114.640625 61.75 L 114.640625 57.429688 L 119.503906 57.429688 L 119.503906 61.75 L 124.363281 61.75 Z M 124.363281 66.070312 "/>
<path style=" stroke:none;fill-rule:nonzero;fill:rgb(100%,100%,100%);fill-opacity:1;" d="M 106.625 66.070312 L 101.765625 66.070312 L 101.765625 70.394531 L 96.90625 70.394531 L 96.90625 66.070312 L 92.042969 66.070312 L 92.042969 61.75 L 96.90625 61.75 L 96.90625 57.429688 L 101.765625 57.429688 L 101.765625 61.75 L 106.625 61.75 Z M 106.625 66.070312 "/>
<path style=" stroke:none;fill-rule:nonzero;fill:rgb(100%,100%,100%);fill-opacity:1;" d="M 82.308594 73.164062 C 78.683594 78.875 71.800781 82.738281 63.894531 82.738281 C 56.039062 82.738281 49.191406 78.925781 45.550781 73.273438 C 43.78125 70.523438 42.761719 67.34375 42.761719 63.953125 C 42.761719 53.578125 52.226562 45.167969 63.894531 45.167969 C 71.699219 45.167969 78.511719 48.933594 82.171875 54.527344 L 100.640625 45.074219 C 93.300781 33.808594 79.59375 26.230469 63.894531 26.230469 C 40.457031 26.230469 21.457031 43.121094 21.457031 63.953125 C 21.457031 70.789062 23.503906 77.195312 27.078125 82.726562 C 34.402344 94.050781 48.148438 101.675781 63.894531 101.675781 C 79.671875 101.675781 93.441406 94.019531 100.753906 82.660156 Z M 82.308594 73.164062 "/>
</g>
</svg>
