<?xml version="1.0" encoding="UTF-8"?>
<svg xmlns="http://www.w3.org/2000/svg" xmlns:xlink="http://www.w3.org/1999/xlink" width="128px" height="128px" viewBox="0 0 128 128" version="1.1">
<g id="surface1">
<path style=" stroke:none;fill-rule:nonzero;fill:rgb(8.235294%,44.705882%,71.372549%);fill-opacity:1;" d="M 18.8125 114.121094 L 8.761719 1.351562 L 119.238281 1.351562 L 109.175781 114.105469 L 63.933594 126.648438 Z M 18.8125 114.121094 "/>
<path style=" stroke:none;fill-rule:nonzero;fill:rgb(20%,66.27451%,86.27451%);fill-opacity:1;" d="M 64 117.0625 L 100.558594 106.925781 L 109.160156 10.570312 L 64 10.570312 Z M 64 117.0625 "/>
<path style=" stroke:none;fill-rule:nonzero;fill:rgb(100%,100%,100%);fill-opacity:1;" d="M 64 51.429688 L 82.304688 51.429688 L 83.566406 37.265625 L 64 37.265625 L 64 23.433594 L 98.683594 23.433594 L 98.351562 27.144531 L 94.949219 65.261719 L 64 65.261719 Z M 64 51.429688 "/>
<path style=" stroke:none;fill-rule:nonzero;fill:rgb(92.156863%,92.156863%,92.156863%);fill-opacity:1;" d="M 64.082031 87.347656 L 64.023438 87.367188 L 48.617188 83.207031 L 47.632812 72.175781 L 33.753906 72.175781 L 35.6875 93.894531 L 64.019531 101.757812 L 64.082031 101.738281 Z M 64.082031 87.347656 "/>
<path style=" stroke:none;fill-rule:nonzero;fill:rgb(100%,100%,100%);fill-opacity:1;" d="M 81.128906 64.675781 L 79.460938 83.195312 L 64.035156 87.359375 L 64.035156 101.75 L 92.390625 93.894531 L 92.597656 91.554688 L 95.003906 64.675781 Z M 81.128906 64.675781 "/>
<path style=" stroke:none;fill-rule:nonzero;fill:rgb(92.156863%,92.156863%,92.156863%);fill-opacity:1;" d="M 64.046875 23.433594 L 64.046875 37.265625 L 30.640625 37.265625 L 30.363281 34.15625 L 29.734375 27.144531 L 29.402344 23.433594 Z M 64 51.429688 L 64 65.261719 L 48.792969 65.261719 L 48.515625 62.152344 L 47.882812 55.140625 L 47.554688 51.429688 Z M 64 51.429688 "/>
</g>
</svg>
