<?xml version="1.0" encoding="UTF-8"?>
<svg xmlns="http://www.w3.org/2000/svg" xmlns:xlink="http://www.w3.org/1999/xlink" width="128px" height="128px" viewBox="0 0 128 128" version="1.1">
<g id="surface1">
<path style=" stroke:none;fill-rule:nonzero;fill:rgb(0%,45.490196%,74.117647%);fill-opacity:1;" d="M 47.617188 98.121094 C 47.617188 98.121094 42.851562 100.894531 51.015625 101.828125 C 60.90625 102.960938 65.960938 102.796875 76.859375 100.738281 C 76.859375 100.738281 79.730469 102.53125 83.730469 104.089844 C 59.292969 114.558594 28.425781 103.480469 47.617188 98.121094 Z M 44.628906 84.453125 C 44.628906 84.453125 39.28125 88.414062 47.453125 89.261719 C 58.019531 90.351562 66.363281 90.441406 80.804688 87.660156 C 80.804688 87.660156 82.800781 89.683594 85.9375 90.789062 C 56.394531 99.429688 23.492188 91.472656 44.628906 84.453125 Z M 44.628906 84.453125 "/>
<path style=" stroke:none;fill-rule:nonzero;fill:rgb(91.764706%,17.647059%,18.039216%);fill-opacity:1;" d="M 69.800781 61.269531 C 75.828125 68.207031 68.222656 74.441406 68.222656 74.441406 C 68.222656 74.441406 83.511719 66.550781 76.492188 56.664062 C 69.933594 47.449219 64.902344 42.871094 92.125 27.085938 C 92.125 27.085938 49.394531 37.753906 69.800781 61.269531 Z M 69.800781 61.269531 "/>
<path style=" stroke:none;fill-rule:nonzero;fill:rgb(0%,45.490196%,74.117647%);fill-opacity:1;" d="M 102.121094 108.230469 C 102.121094 108.230469 105.652344 111.140625 98.234375 113.386719 C 84.132812 117.660156 39.527344 118.949219 27.140625 113.558594 C 22.691406 111.621094 31.039062 108.933594 33.667969 108.367188 C 36.40625 107.773438 37.96875 107.882812 37.96875 107.882812 C 33.015625 104.394531 5.957031 114.730469 24.226562 117.695312 C 74.046875 125.773438 115.042969 114.058594 102.121094 108.230469 Z M 49.910156 70.292969 C 49.910156 70.292969 27.226562 75.683594 41.878906 77.640625 C 48.066406 78.46875 60.398438 78.28125 71.890625 77.316406 C 81.28125 76.527344 90.703125 74.84375 90.703125 74.84375 C 90.703125 74.84375 87.394531 76.261719 85 77.894531 C 61.957031 83.957031 17.453125 81.132812 30.269531 74.9375 C 41.101562 69.699219 49.910156 70.292969 49.910156 70.292969 Z M 90.609375 93.039062 C 114.03125 80.875 103.199219 69.179688 95.640625 70.757812 C 93.792969 71.140625 92.964844 71.476562 92.964844 71.476562 C 92.964844 71.476562 93.652344 70.398438 94.964844 69.933594 C 109.917969 64.679688 121.414062 85.4375 90.140625 93.65625 C 90.140625 93.65625 90.5 93.332031 90.609375 93.039062 Z M 90.609375 93.039062 "/>
<path style=" stroke:none;fill-rule:nonzero;fill:rgb(91.764706%,17.647059%,18.039216%);fill-opacity:1;" d="M 76.492188 1.585938 C 76.492188 1.585938 89.460938 14.5625 64.1875 34.511719 C 43.921875 50.515625 59.566406 59.640625 64.179688 70.070312 C 52.351562 59.394531 43.671875 50 49.492188 41.253906 C 58.039062 28.421875 81.722656 22.195312 76.492188 1.585938 Z M 76.492188 1.585938 "/>
<path style=" stroke:none;fill-rule:nonzero;fill:rgb(0%,45.490196%,74.117647%);fill-opacity:1;" d="M 52.214844 126.019531 C 74.691406 127.457031 109.214844 125.222656 110.03125 114.585938 C 110.03125 114.585938 108.460938 118.617188 91.453125 121.816406 C 72.269531 125.429688 48.601562 125.007812 34.566406 122.691406 C 34.566406 122.691406 37.441406 125.070312 52.214844 126.019531 Z M 52.214844 126.019531 "/>
</g>
</svg>
