<?xml version="1.0" encoding="UTF-8"?>
<svg xmlns="http://www.w3.org/2000/svg" xmlns:xlink="http://www.w3.org/1999/xlink" width="128px" height="128px" viewBox="0 0 128 128" version="1.1">
<g id="surface1">
<path style=" stroke:none;fill-rule:nonzero;fill:rgb(98.823529%,28.627451%,4.313725%);fill-opacity:1;" d="M 8.058594 4.238281 L 16.367188 110.515625 C 16.492188 112.113281 17.570312 113.472656 19.097656 113.957031 L 62.8125 127.816406 C 63.585938 128.0625 64.414062 128.0625 65.1875 127.816406 L 108.902344 113.957031 C 110.429688 113.472656 111.507812 112.113281 111.632812 110.515625 L 119.941406 4.238281 C 120.121094 1.953125 118.3125 0 116.023438 0 L 11.980469 0 C 9.6875 0 7.882812 1.953125 8.058594 4.238281 Z M 98.636719 37.210938 L 44.496094 37.210938 L 46.128906 52.28125 L 97.460938 52.28125 L 94.101562 95.234375 L 64 104.777344 L 33.898438 95.234375 L 32.144531 72.792969 L 47.945312 72.792969 L 47.945312 83.800781 L 64.421875 88.222656 L 80.800781 83.800781 L 82.074219 66.257812 L 31.632812 66.257812 L 28.285156 23.414062 L 99.714844 23.414062 Z M 98.636719 37.210938 "/>
</g>
</svg>
