<?xml version="1.0" encoding="UTF-8" standalone="no"?>
<!-- Uploaded to: SVG Repo, www.svgrepo.com, Transformed by: SVG Repo Mixer Tools -->

<svg
   width="128"
   height="128"
   viewBox="0 0 7.68 7.68"
   fill="none"
   version="1.1"
   id="svg3"
   sodipodi:docname="instagram-svgrepo-com.svg"
   inkscape:version="1.3.2 (091e20ef0f, 2023-11-25)"
   xmlns:inkscape="http://www.inkscape.org/namespaces/inkscape"
   xmlns:sodipodi="http://sodipodi.sourceforge.net/DTD/sodipodi-0.dtd"
   xmlns="http://www.w3.org/2000/svg"
   xmlns:svg="http://www.w3.org/2000/svg">
  <defs
     id="defs3" />
  <sodipodi:namedview
     id="namedview3"
     pagecolor="#505050"
     bordercolor="#eeeeee"
     borderopacity="1"
     inkscape:showpageshadow="0"
     inkscape:pageopacity="0"
     inkscape:pagecheckerboard="0"
     inkscape:deskcolor="#505050"
     inkscape:zoom="0.6175"
     inkscape:cx="334.41296"
     inkscape:cy="333.60324"
     inkscape:window-width="1366"
     inkscape:window-height="700"
     inkscape:window-x="0"
     inkscape:window-y="0"
     inkscape:window-maximized="1"
     inkscape:current-layer="svg3" />
  <g
     id="SVGRepo_bgCarrier"
     stroke-width="0"
     transform="translate(-4,-4)" />
  <g
     id="SVGRepo_tracerCarrier"
     stroke-linecap="round"
     stroke-linejoin="round"
     transform="translate(-4,-4)" />
  <g
     id="SVGRepo_iconCarrier"
     transform="matrix(0.192,0,0,0.192,-0.768,-0.768)">
    <circle
       cx="24"
       cy="24"
       r="20"
       fill="#c13584"
       id="circle1" />
    <path
       d="m 24,14.1622 c 3.2041,0 3.5837,0.0122 4.849,0.0699 1.17,0.0534 1.8054,0.2489 2.2283,0.4132 0.5601,0.2177 0.9598,0.4777 1.3797,0.8976 0.42,0.42 0.68,0.8197 0.8977,1.3798 0.1643,0.4229 0.3598,1.0583 0.4132,2.2282 0.0577,1.2654 0.0699,1.6449 0.0699,4.849 0,3.2042 -0.0122,3.5837 -0.0699,4.8491 -0.0534,1.17 -0.2489,1.8053 -0.4132,2.2282 -0.2177,0.5601 -0.4777,0.9599 -0.8976,1.3798 -0.42,0.4199 -0.8197,0.6799 -1.3798,0.8976 -0.4229,0.1644 -1.0583,0.3598 -2.2283,0.4132 -1.2651,0.0577 -1.6446,0.07 -4.849,0.07 -3.2044,0 -3.5838,-0.0123 -4.849,-0.07 -1.17,-0.0534 -1.8054,-0.2488 -2.2283,-0.4132 -0.5601,-0.2177 -0.9598,-0.4777 -1.3797,-0.8976 -0.4199,-0.4199 -0.68,-0.8197 -0.8977,-1.3798 -0.1643,-0.4229 -0.3598,-1.0582 -0.4132,-2.2282 -0.0577,-1.2654 -0.0699,-1.6449 -0.0699,-4.8491 0,-3.2041 0.0122,-3.5836 0.0699,-4.849 0.0534,-1.1699 0.2489,-1.8053 0.4132,-2.2282 0.2177,-0.5601 0.4777,-0.9598 0.8977,-1.3797 0.4199,-0.42 0.8196,-0.68 1.3797,-0.8977 0.4229,-0.1643 1.0583,-0.3598 2.2283,-0.4132 1.2653,-0.0577 1.6449,-0.0699 4.849,-0.0699 z M 24,12 c -3.259,0 -3.6677,0.0138 -4.9476,0.0722 -1.2772,0.0583 -2.1496,0.2611 -2.9129,0.5578 -0.7891,0.3066 -1.4583,0.7169 -2.1254,1.3841 -0.6672,0.6671 -1.0775,1.3363 -1.3841,2.1254 -0.2967,0.7633 -0.4995,1.6356 -0.5578,2.9129 C 12.0138,20.3323 12,20.741 12,23.9999 c 0,3.2591 0.0138,3.6677 0.0722,4.9476 0.0583,1.2773 0.2611,2.1496 0.5578,2.9129 0.3066,0.7891 0.7169,1.4583 1.3841,2.1255 0.6671,0.6671 1.3363,1.0774 2.1254,1.384 0.7633,0.2967 1.6357,0.4995 2.9129,0.5578 1.2799,0.0584 1.6886,0.0722 4.9476,0.0722 3.259,0 3.6677,-0.0138 4.9476,-0.0722 1.2772,-0.0583 2.1496,-0.2611 2.9129,-0.5578 0.7891,-0.3066 1.4583,-0.7169 2.1254,-1.384 0.6671,-0.6672 1.0775,-1.3364 1.3841,-2.1255 0.2967,-0.7633 0.4995,-1.6356 0.5578,-2.9129 C 35.9862,27.6676 36,27.259 36,23.9999 36,20.741 35.9862,20.3323 35.9278,19.0524 35.8695,17.7751 35.6667,16.9028 35.37,16.1395 35.0634,15.3504 34.653,14.6812 33.9859,14.0141 33.3188,13.3469 32.6496,12.9366 31.8605,12.63 31.0972,12.3333 30.2248,12.1305 28.9476,12.0722 27.6677,12.0138 27.259,12 24,12 Z"
       fill="#ffffff"
       id="path1" />
    <path
       d="m 24.0059,17.8433 c -3.4033,0 -6.1621,2.7588 -6.1621,6.1621 0,3.4033 2.7588,6.1621 6.1621,6.1621 3.4033,0 6.1622,-2.7588 6.1622,-6.1621 0,-3.4033 -2.7589,-6.1621 -6.1622,-6.1621 z m 0,10.1621 c -2.2091,0 -4,-1.7909 -4,-4 0,-2.2091 1.7909,-4 4,-4 2.2092,0 4,1.7909 4,4 0,2.2091 -1.7908,4 -4,4 z"
       fill="#ffffff"
       id="path2" />
    <path
       d="m 31.8507,17.5963 c 0,0.7952 -0.6447,1.44 -1.44,1.44 -0.7953,0 -1.44,-0.6448 -1.44,-1.44 0,-0.7953 0.6447,-1.4401 1.44,-1.4401 0.7953,0 1.44,0.6448 1.44,1.4401 z"
       fill="#ffffff"
       id="path3" />
  </g>
</svg>
