<?xml version="1.0" encoding="UTF-8" standalone="no"?>
<!-- Uploaded to: SVG Repo, www.svgrepo.com, Generator: SVG Repo Mixer Tools -->

<svg
   width="128"
   height="128"
   viewBox="0 0 2.56 2.56"
   fill="none"
   version="1.1"
   id="svg1"
   sodipodi:docname="linkedin-svgrepo-com.svg"
   inkscape:version="1.3.2 (091e20ef0f, 2023-11-25)"
   xmlns:inkscape="http://www.inkscape.org/namespaces/inkscape"
   xmlns:sodipodi="http://sodipodi.sourceforge.net/DTD/sodipodi-0.dtd"
   xmlns="http://www.w3.org/2000/svg"
   xmlns:svg="http://www.w3.org/2000/svg">
  <defs
     id="defs1" />
  <sodipodi:namedview
     id="namedview1"
     pagecolor="#505050"
     bordercolor="#eeeeee"
     borderopacity="1"
     inkscape:showpageshadow="0"
     inkscape:pageopacity="0"
     inkscape:pagecheckerboard="0"
     inkscape:deskcolor="#505050"
     inkscape:zoom="0.6175"
     inkscape:cx="65.587045"
     inkscape:cy="116.59919"
     inkscape:window-width="1366"
     inkscape:window-height="700"
     inkscape:window-x="0"
     inkscape:window-y="0"
     inkscape:window-maximized="1"
     inkscape:current-layer="svg1" />
  <path
     fill="#0a66c2"
     d="M 2.1813333,2.1813287 H 1.8020267 V 1.5871974 c 0,-0.1416528 -0.00256,-0.3240521 -0.1973334,-0.3240521 -0.1975466,0 -0.22784,0.1544528 -0.22784,0.3135988 V 2.1813287 H 0.9975467 V 0.95957307 h 0.36416 V 1.1266124 h 0.00512 c 0.07424,-0.12671953 0.21248,-0.20266593 0.3592533,-0.19733263 0.3844267,0 0.4554667,0.25279913 0.4554667,0.58197133 L 2.1813333,2.1811153 Z M 0.5696,0.79253367 A 0.22122667,0.22122586 0 0 1 0.34944,0.57258777 c 0,-0.1207462 0.099413,-0.2201592 0.22016,-0.2201592 0.1207467,0 0.2199467,0.099413 0.22016,0.2201592 0,0.1207462 -0.099413,0.2201592 -0.22016,0.2201592 z M 0.7592533,2.1813287 H 0.37952 V 0.95957307 H 0.7592533 Z M 2.3701333,3.1665429e-6 H 0.1888 A 0.18773333,0.18773265 0 0 0 0,0.18474917 V 2.3752478 a 0.18773333,0.18773265 0 0 0 0.1888,0.184746 H 2.3703467 A 0.18816,0.18815931 0 0 0 2.56,2.3752478 V 0.18453587 A 0.18773333,0.18773265 0 0 0 2.3703467,2.1656654e-4 Z"
     id="path1"
     style="stroke-width:0.213333" />
</svg>
