<?xml version="1.0" encoding="UTF-8" standalone="no"?>
<!-- Uploaded to: SVG Repo, www.svgrepo.com, Transformed by: SVG Repo Mixer Tools -->

<svg
   fill="#62a0ea"
   width="127.99873"
   height="127.998"
   viewBox="0 0 3.839962 3.83994"
   xml:space="preserve"
   stroke="#62a0ea"
   stroke-width="0.00024"
   version="1.1"
   id="svg1"
   sodipodi:docname="tailwind-css.svg"
   inkscape:version="1.3.2 (091e20ef0f, 2023-11-25)"
   xmlns:inkscape="http://www.inkscape.org/namespaces/inkscape"
   xmlns:sodipodi="http://sodipodi.sourceforge.net/DTD/sodipodi-0.dtd"
   xmlns="http://www.w3.org/2000/svg"
   xmlns:svg="http://www.w3.org/2000/svg"><defs
   id="defs1" /><sodipodi:namedview
   id="namedview1"
   pagecolor="#505050"
   bordercolor="#eeeeee"
   borderopacity="1"
   inkscape:showpageshadow="0"
   inkscape:pageopacity="0"
   inkscape:pagecheckerboard="0"
   inkscape:deskcolor="#505050"
   inkscape:zoom="2.47"
   inkscape:cx="78.744939"
   inkscape:cy="66.396761"
   inkscape:window-width="1366"
   inkscape:window-height="700"
   inkscape:window-x="0"
   inkscape:window-y="0"
   inkscape:window-maximized="1"
   inkscape:current-layer="svg1" />

<g
   id="SVGRepo_bgCarrier"
   stroke-width="0"
   transform="translate(-1.9999026,-6.035842)" />

<g
   id="SVGRepo_tracerCarrier"
   stroke-linecap="round"
   stroke-linejoin="round"
   transform="translate(-1.9999026,-6.035842)" />

<g
   id="SVGRepo_iconCarrier"
   transform="matrix(0.19199793,0,0,0.32192511,-0.38397315,-1.9431004)">

<path
   fill-rule="evenodd"
   clip-rule="evenodd"
   d="M 12,6.036 C 9.333,6.036 7.667,7.361 7,10.012 8,8.687 9.167,8.19 10.5,8.521 11.261,8.71 11.805,9.259 12.406,9.866 13.387,10.855 14.522,12 17,12 19.667,12 21.333,10.675 22,8.024 21,9.349 19.834,9.846 18.5,9.515 17.739,9.326 17.195,8.777 16.593,8.17 15.613,7.18 14.479,6.036 12,6.036 Z M 7,12 c -2.667,0 -4.333,1.325 -5,3.976 1,-1.326 2.167,-1.822 3.5,-1.491 0.761,0.189 1.305,0.738 1.907,1.345 0.98,0.989 2.115,2.134 4.594,2.134 2.667,0 4.333,-1.325 5,-3.976 -1,1.325 -2.167,1.822 -3.5,1.491 C 12.74,15.29 12.196,14.741 11.595,14.134 10.613,13.145 9.478,12 7,12 Z"
   id="path1" />

</g>

</svg>
